<svg t="1587110505050" class="icon" viewBox="0 0 1024 1024" version="1.1" xmlns="http://www.w3.org/2000/svg" p-id="8464" data-spm-anchor-id="a313x.7781069.0.i52" width="256" height="256"><path d="M563.1 1016.3c-18.8 0-34-15.2-34-34V767h68v215.3c0 18.8-15.2 34-34 34z" fill="#FFCA28" p-id="8465"></path><path d="M965.3 767h-827c-22 0-39.9-17.8-39.9-39.9V265.6c0-67.4 54.6-122 122-122h662.7c67.4 0 122 54.6 122 122v461.5c0 22.1-17.8 39.9-39.8 39.9z" fill="#1890ff" p-id="8466" data-spm-anchor-id="a313x.7781069.0.i43" class=""></path><path d="M319.6 733H151.7c-9.9 0-17.9-8-17.9-17.9V282.3c0-56.3 45.6-101.9 101.9-101.9 56.3 0 101.9 45.6 101.9 101.9v432.8c-0.1 9.9-8.1 17.9-18 17.9z" fill="#096dd9" p-id="8467" data-spm-anchor-id="a313x.7781069.0.i47" class=""></path><path d="M320.4 733H18.7V334.5h318.8v379.8c0 6.1-1.9 9.5-4.4 12.5-2.9 3.6-7.7 6-12.7 6.2z" fill="#F5F5F5" p-id="8468"></path><path d="M18.8 533.8V733h301.7c5-0.2 9.8-2.6 12.7-6.2 2.5-3 4.5-6.5 4.4-12.5V533.8H18.8z" fill="#8a8a8a" p-id="8469" data-spm-anchor-id="a313x.7781069.0.i50" class="selected"></path><path d="M337.6 533.7L18.8 733V334.5z" fill="#bfbfbf" p-id="8470" data-spm-anchor-id="a313x.7781069.0.i51" class=""></path><path d="M671 767L451.5 465.4c-3.4-4.6-5.1-10.2-5.1-15.9l0.8-300 328.2-5.9 229.8 310.1v265.8c1 17.8-3.4 28.3-12.9 37-6.8 6.2-16 10.7-27.9 10.4L671 767z" fill="#096dd9" p-id="8471" data-spm-anchor-id="a313x.7781069.0.i42" class=""></path><path d="M472.1 472.3h-5.5c-11 0-19.9-8.9-19.9-19.9V27.6c0-11 8.9-19.9 19.9-19.9H492v444.7c0 11-8.9 19.9-19.9 19.9z" fill="#FFCA28" p-id="8472"></path><path d="M755.4 234.3H486.5c-22 0-39.9-17.8-39.9-39.9v-147c0-22 17.8-39.9 39.9-39.9h268.9c11 0 19.9 8.9 19.9 19.9v186.8c0 11.2-8.9 20.1-19.9 20.1z" fill="#FFCA28" p-id="8473"></path></svg>